<svg id="Bee" xmlns="http://www.w3.org/2000/svg" viewBox="0 0 748.68 516.85">
   <defs>
      <style>.cls-1,.cls-3,.cls-4{fill:#fff;}.cls-1,.cls-2,.cls-3,.cls-5{stroke:#000;stroke-miterlimit:10;}.cls-2{fill:#fed80e;stroke-width:8px;}.cls-3,.cls-5{stroke-width:4px;}.cls-5{fill:none;}</style>
   </defs>
   <title>Bee</title>
   <path id="RightWingBase" class="cls-1" d="M525.21,444.27l26.47-210.68s0.23-14-56.56-5.45-54.29,40.66-54.29,40.66l24.61,173.09" transform="translate(-117.28 -224.88)"/>
   <g id="LeftLineWing">
      <path d="M479.15,441.77L479,440c-0.06-1.16-.2-2.81-0.28-4.8s-0.22-4.31-.3-6.79-0.16-5.14-.22-7.79-0.09-5.3-.1-7.79,0-4.81,0-6.8,0.07-3.65.09-4.81l0.06-1.83,0.13,1.82c0.06,1.16.2,2.81,0.28,4.8s0.22,4.31.3,6.79,0.15,5.14.22,7.79,0.09,5.3.1,7.79,0,4.81,0,6.8-0.07,3.65-.08,4.81Z" transform="translate(-117.28 -224.88)"/>
   </g>
   <g id="RightLineWIng">
      <path d="M497.46,442.17l-0.06-1.72c0-1.09-.08-2.66-0.08-4.53s0-4.06,0-6.4,0.06-4.84.1-7.34,0.13-5,.22-7.33,0.21-4.52.3-6.39,0.22-3.43.28-4.52l0.13-1.71,0.06,1.72c0,1.09.08,2.66,0.09,4.53s0,4.06,0,6.4-0.06,4.84-.1,7.34-0.13,5-.22,7.33-0.21,4.52-.3,6.39-0.22,3.43-.28,4.52Z" transform="translate(-117.28 -224.88)"/>
   </g>
   <g id="Body">
	   <ellipse id="BaseYellowBee" class="cls-2" cx="438.12" cy="589.43" rx="234.85" ry="145.73" transform="translate(-199.86 -153.38) rotate(-8.53)"/>
	   <path id="RIghtStripe" d="M563.85,455.08s12.58,75.77,24.8,112.76S629,654.62,629,654.62l34.24-35.9,7.88-48.83-75.3-123.55Z" transform="translate(-117.28 -224.88)"/>
	   <path id="MiddleRightStripe" d="M436.22,442.32s-6.35,65.87,17,153.67S512.8,723,512.8,723l65.08-26s-33.53-47.72-54.46-119.64-14.28-135.81-14.28-135.81l-72.92.79" transform="translate(-117.28 -224.88)"/>
	   <path id="MiddleLeftStripe" d="M357.73,458.29L326,468.41l-41.24,24.67S287.21,558,298.91,609s40.87,123.71,40.87,123.71l53.69,5.78,37.1-1.21S395.75,669.52,379.13,601s-21.4-142.72-21.4-142.72" transform="translate(-117.28 -224.88)"/>
	   <path id="BeeStinger" d="M241.34,687.27l-28-117.75-7.74,22.64,0.24,32.09a86.5,86.5,0,0,1-21.19,3.9c-11.22.51-22.19,0.4-22.19,0.4s5,7.53,20.22,9.85S209,638,209,638" transform="translate(-117.28 -224.88)"/>
	   <ellipse id="BaseHead" class="cls-2" cx="714.18" cy="475.41" rx="148.15" ry="129.48" transform="translate(-179.9 -113.69) rotate(-8.53)"/>
	   <ellipse id="BaseRightEye" class="cls-3" cx="820.18" cy="399.44" rx="41.5" ry="59.41" transform="translate(-167.46 -98.81) rotate(-8.53)"/>
	   <ellipse id="RightRetina" cx="824.44" cy="408.52" rx="20.42" ry="29.72" transform="translate(-168.76 -98.08) rotate(-8.53)"/>
	   <path id="RightEyeShine" class="cls-4" d="M803.08,410.49s7,7.11,14.6-2.19S811,383.73,811,383.73l-16-13.65-9.29,33.72Z" transform="translate(-117.28 -224.88)"/>
	   <ellipse id="LeftEyeShine" class="cls-3" cx="750.18" cy="393.36" rx="54.54" ry="75.8" transform="translate(-167.33 -109.26) rotate(-8.53)"/>
	   <path id="RightEntenna" class="cls-5" d="M798.23,346.06S785.83,287.39,782,274.15s-21.44-26.26-21.44-26.26" transform="translate(-117.28 -224.88)"/>
	   <path id="LeftEntenna" class="cls-5" d="M749.84,317.65s-31.37-44-41.21-53.68-29.86-14.86-29.86-14.86" transform="translate(-117.28 -224.88)"/>
   </g>
   <g id="Smile">
      <path d="M832.2,496s-0.25.41-.76,1.16-1.29,1.82-2.39,3.11a54,54,0,0,1-4.19,4.46c-0.86.82-1.77,1.69-2.79,2.54l-1.57,1.32c-0.55.43-1.13,0.85-1.71,1.29l-1.8,1.34-1.94,1.28c-0.66.43-1.32,0.89-2,1.29L810.85,515c-1.45.86-3,1.58-4.62,2.34a49.93,49.93,0,0,1-5,2.07c-1.7.71-3.51,1.19-5.33,1.75-0.91.25-1.81,0.59-2.75,0.77l-2.83.59c-0.95.18-1.89,0.43-2.86,0.56l-2.9.38-2.92.38c-1.07.09-1.95,0.13-2.93,0.2a58.08,58.08,0,0,1-11.84-.82,55.38,55.38,0,0,1-11-3.14,58.84,58.84,0,0,1-9.49-4.78,63.37,63.37,0,0,1-7.67-5.54,67.16,67.16,0,0,1-9.8-10.07,40.66,40.66,0,0,1-3-4.34s1.25,1.47,3.64,3.81a87.37,87.37,0,0,0,10.6,8.78,80.54,80.54,0,0,0,7.76,4.78,69,69,0,0,0,9.24,4.07,60.24,60.24,0,0,0,10.39,2.62,54.81,54.81,0,0,0,11,.64l2.81-.15,2.78-.33,2.77-.33c0.92-.11,1.82-0.34,2.73-0.5,1.8-.37,3.62-0.65,5.35-1.16s3.49-.86,5.14-1.48,3.31-1.09,4.87-1.77,3.12-1.23,4.56-2l2.15-1c0.71-.35,1.36-0.76,2-1.11l2-1.08L817.5,508c0.6-.38,1.2-0.74,1.76-1.11l1.63-1.14c1.09-.71,2.06-1.47,3-2.17,1.83-1.41,3.37-2.73,4.61-3.85s2.17-2.05,2.79-2.7S832.2,496,832.2,496Z" transform="translate(-117.28 -224.88)"/>
   </g>
   <ellipse id="LeftBaseEye" cx="758.37" cy="412.81" rx="23.95" ry="37.5" transform="translate(-170.12 -107.83) rotate(-8.53)"/>
   <path id="LeftEyeShine-2" data-name="LeftEyeShine" class="cls-4" d="M742.6,382.3s14.23,15.27,6.68,24.58-14.6,2.19-14.6,2.19-8.18-1.73-8-13.61S742.6,382.3,742.6,382.3Z" transform="translate(-117.28 -224.88)"/>
   <path id="LeftWingBase" class="cls-1" d="M491.31,475.13l-247-229.43s-48.4-19.17-98.81,26.57-16.59,95-16.59,95L450,490.94Z" transform="translate(-117.28 -224.88)"/>
   <g id="RightLine">
      <path d="M478.77,477.53l-4.49-3.41-11.81-9L445.84,452.2l-19-14.84-18.91-14.94-16.44-13.11L379.93,400l-4.37-3.56,4.5,3.41,11.81,9,16.62,12.87,19,14.84,18.91,14.94,16.44,13.11L474.4,474Z" transform="translate(-117.28 -224.88)"/>
   </g>
   <g id="LeftLine">
      <path d="M464.25,483.66l-5.34-2.33-14-6.21-19.8-8.88L402.42,456l-22.6-10.4-19.68-9.16-13.89-6.55L341,427.33l5.34,2.33,14,6.21,19.8,8.88L402.83,455l22.6,10.4,19.68,9.16L459,481.16Z" transform="translate(-117.28 -224.88)"/>
   </g>
</svg>